<?xml version="1.0" standalone="no"?>
<!DOCTYPE svg PUBLIC "-//W3C//DTD SVG 20010904//EN"
 "http://www.w3.org/TR/2001/REC-SVG-20010904/DTD/svg10.dtd">
<svg version="1.0" xmlns="http://www.w3.org/2000/svg"
 width="260.000000pt" height="260.000000pt" viewBox="0 0 260.000000 260.000000"
 preserveAspectRatio="xMidYMid meet">
<metadata>
Created by potrace 1.11, written by Peter Selinger 2001-2013
</metadata>
<g transform="translate(0.000000,260.000000) scale(0.100000,-0.100000)"
fill="#000000" stroke="none">
<path d="M282 2505 c-19 -24 -19 -54 -18 -1142 1 -1045 2 -1120 19 -1150 25
-46 64 -83 111 -104 39 -18 85 -19 906 -19 818 0 867 1 905 19 45 21 89 61
113 106 16 27 17 128 18 1153 l1 1123 -25 19 c-24 20 -43 20 -1018 20 l-993 0
-19 -25z"/>
</g>
</svg>
