<svg width="362" height="73" viewBox="0 0 362 73" fill="none" xmlns="http://www.w3.org/2000/svg">
<path d="M222.221 17.8514C224.478 17.8514 226.435 18.1998 228.094 18.8966C229.787 19.5602 231.064 20.4893 231.927 21.6839C232.823 22.8452 233.271 24.1891 233.271 25.7155C233.271 26.5782 233.155 27.3745 232.922 28.1045C231.96 31.4559 229.189 33.5795 224.61 34.4755C226.203 34.94 227.464 35.7198 228.393 36.8148C229.322 37.8766 229.787 39.2039 229.787 40.7966C229.787 41.5266 229.654 42.3893 229.388 43.3848C228.658 45.973 227.182 47.8975 224.959 49.1584C222.769 50.3861 219.65 51 215.601 51H194.896C194.199 51 193.668 50.8839 193.303 50.6516C192.905 50.4193 192.706 50.1041 192.706 49.7059C192.706 49.5068 192.756 49.2911 192.855 49.0589C192.988 48.6939 193.204 48.4118 193.502 48.2127C193.801 48.0136 193.983 47.8975 194.05 47.8643C194.581 47.5325 195.012 47.2007 195.344 46.8689C195.676 46.5039 195.958 45.9232 196.19 45.1268L202.262 23.6748C202.395 23.2434 202.461 22.8286 202.461 22.4305C202.461 22.0655 202.395 21.7668 202.262 21.5345C202.163 21.2691 202.013 20.9705 201.814 20.6386C201.516 20.2073 201.366 19.8589 201.366 19.5934C201.366 19.4939 201.4 19.3114 201.466 19.0459C201.599 18.6145 201.881 18.3159 202.312 18.15C202.777 17.9509 203.473 17.8514 204.402 17.8514H222.221ZM219.981 26.9598C220.214 26.2298 220.33 25.5495 220.33 24.9191C220.33 23.1936 219.351 22.3309 217.393 22.3309H215.153L212.515 31.6384H214.705C216.099 31.6384 217.194 31.3066 217.99 30.643C218.82 29.9461 219.484 28.7184 219.981 26.9598ZM216.348 41.593C216.58 40.7966 216.696 40.0666 216.696 39.403C216.696 37.6111 215.668 36.7152 213.61 36.7152H211.122L208.285 46.5205H210.823C212.25 46.5205 213.395 46.172 214.257 45.4752C215.12 44.7452 215.817 43.4511 216.348 41.593ZM251.126 24.6702C255.639 24.6702 258.957 25.5827 261.081 27.4077C263.238 29.2327 264.316 31.6218 264.316 34.575C264.316 35.5705 264.183 36.682 263.918 37.9098C263.287 40.6307 262.109 43.0198 260.384 45.077C258.659 47.1011 256.535 48.6773 254.013 49.8055C251.524 50.9005 248.82 51.448 245.9 51.448C241.288 51.448 237.87 50.5355 235.647 48.7105C233.457 46.8523 232.362 44.3968 232.362 41.3441C232.362 40.3155 232.495 39.1707 232.76 37.9098C233.391 35.3216 234.585 33.032 236.344 31.0411C238.136 29.017 240.309 27.4575 242.864 26.3625C245.452 25.2343 248.206 24.6702 251.126 24.6702ZM250.977 29.1C250.28 29.1 249.534 29.7305 248.737 30.9914C247.974 32.2191 247.061 34.5584 246 38.0093C244.938 41.4602 244.407 43.8825 244.407 45.2761C244.407 46.0061 244.523 46.5039 244.755 46.7693C244.988 47.0016 245.303 47.1177 245.701 47.1177C246.398 47.1841 247.111 46.5868 247.841 45.3259C248.604 44.065 249.55 41.6095 250.678 37.9595C251.707 34.7409 252.221 32.4016 252.221 30.9416C252.221 30.2448 252.105 29.7636 251.873 29.4982C251.674 29.2327 251.375 29.1 250.977 29.1ZM295.337 44.1314C295.271 44.2641 295.237 44.4632 295.237 44.7286C295.237 44.9609 295.287 45.1434 295.387 45.2761C295.519 45.4089 295.685 45.4752 295.884 45.4752C296.283 45.4752 296.614 45.3093 296.88 44.9775C297.178 44.6125 297.378 44.43 297.477 44.43C297.643 44.43 297.776 44.5461 297.875 44.7784C297.975 44.9775 298.025 45.2264 298.025 45.525C298.058 46.4873 297.743 47.433 297.079 48.362C296.415 49.258 295.436 50.0045 294.142 50.6018C292.881 51.1659 291.355 51.448 289.563 51.448C287.373 51.448 285.631 50.9502 284.337 49.9548C283.043 48.9261 282.379 47.5657 282.346 45.8734C282.346 44.6457 282.645 43.2686 283.242 41.7423L285.98 34.575C286.146 34.1436 286.228 33.7952 286.228 33.5298C286.228 33.0984 286.079 32.7666 285.781 32.5343C285.515 32.2689 285.183 32.1361 284.785 32.1361C284.055 32.1361 283.358 32.4845 282.695 33.1814C282.031 33.845 281.55 34.6745 281.251 35.67L278.165 45.8236C278.033 46.1886 277.966 46.537 277.966 46.8689C277.966 47.267 278.049 47.5989 278.215 47.8643C278.381 48.0966 278.613 48.3455 278.912 48.6109C279.144 48.81 279.31 48.9925 279.41 49.1584C279.509 49.3243 279.526 49.5234 279.459 49.7557C279.327 50.187 279.011 50.5023 278.514 50.7014C278.016 50.9005 277.236 51 276.174 51H264.826C263.963 51 263.35 50.8673 262.985 50.6018C262.586 50.3032 262.437 49.9216 262.537 49.457C262.669 49.0589 263.018 48.7105 263.582 48.4118C264.08 48.1464 264.494 47.8311 264.826 47.4661C265.158 47.1011 265.44 46.5205 265.672 45.7241L270.102 31.3398C270.168 31.1739 270.202 30.9416 270.202 30.643C270.202 30.278 270.119 29.9959 269.953 29.7968C269.82 29.5977 269.588 29.3489 269.256 29.0502C268.924 28.7848 268.692 28.5525 268.559 28.3534C268.426 28.1543 268.41 27.8889 268.509 27.557C268.708 26.7939 269.754 26.1302 271.645 25.5661C273.536 24.9689 275.511 24.6702 277.568 24.6702C279.227 24.6702 280.538 25.1348 281.5 26.0639C282.462 26.9598 282.894 28.2207 282.794 29.8466C284.155 27.8889 285.598 26.545 287.124 25.815C288.651 25.0518 290.31 24.6702 292.102 24.6702C294.126 24.6702 295.752 25.2841 296.979 26.5118C298.24 27.7395 298.871 29.3323 298.871 31.29C298.871 32.3186 298.705 33.3307 298.373 34.3261L295.337 44.1314ZM313.246 24.6702C315.171 24.6702 316.581 25.0352 317.477 25.7652C318.373 26.4952 318.821 27.4907 318.821 28.7516C318.821 29.5148 318.705 30.2448 318.472 30.9416L313.893 45.8236C313.794 46.2218 313.744 46.5702 313.744 46.8689C313.744 47.3002 313.827 47.6486 313.993 47.9141C314.159 48.1464 314.391 48.3786 314.69 48.6109C314.922 48.8432 315.088 49.0423 315.187 49.2082C315.287 49.3409 315.303 49.5234 315.237 49.7557C315.071 50.187 314.739 50.5023 314.242 50.7014C313.744 50.9005 312.981 51 311.952 51H300.604C299.741 51 299.111 50.8673 298.712 50.6018C298.314 50.3032 298.182 49.9216 298.314 49.457C298.447 49.0589 298.795 48.7105 299.36 48.4118C299.857 48.1464 300.272 47.8311 300.604 47.4661C300.936 47.1011 301.218 46.5205 301.45 45.7241L305.78 31.3398C305.88 31.0411 305.93 30.7923 305.93 30.5932C305.93 30.2282 305.847 29.9461 305.681 29.747C305.515 29.5148 305.266 29.2825 304.934 29.0502C304.602 28.7848 304.37 28.5525 304.237 28.3534C304.105 28.1543 304.088 27.8889 304.187 27.557C304.387 26.7939 305.432 26.1302 307.323 25.5661C309.215 24.9689 311.189 24.6702 313.246 24.6702ZM316.581 13.6705C317.875 13.6705 318.953 14.1018 319.816 14.9645C320.679 15.7941 321.11 16.8227 321.11 18.0505C321.11 18.9132 320.878 19.7593 320.413 20.5889C319.982 21.4184 319.352 22.0986 318.522 22.6295C317.726 23.1273 316.83 23.3761 315.834 23.3761C314.573 23.3761 313.512 22.9614 312.649 22.1318C311.819 21.2691 311.388 20.2073 311.355 18.9464C311.355 18.1168 311.57 17.3039 312.002 16.5075C312.433 15.678 313.047 14.9977 313.843 14.4668C314.64 13.9359 315.552 13.6705 316.581 13.6705ZM347.898 24.6702C349.79 24.6702 351.3 25.2011 352.428 26.263C353.589 27.2916 354.17 28.5525 354.17 30.0457C354.17 31.6384 353.689 32.8827 352.726 33.7786C351.764 34.6745 350.503 35.1225 348.944 35.1225C347.55 35.1225 346.472 34.7741 345.708 34.0773C344.945 33.3473 344.58 32.5343 344.613 31.6384C344.282 31.572 344 31.7048 343.767 32.0366C343.535 32.3684 343.286 33.0155 343.021 33.9777C342.855 34.6082 342.54 35.1889 342.075 35.7198C344.331 35.8857 346.007 36.4 347.102 37.2627C348.197 38.1255 348.745 39.237 348.745 40.5975C348.745 41.2611 348.628 41.9248 348.396 42.5884L347.998 44.1314C347.932 44.2973 347.898 44.513 347.898 44.7784C347.898 45.243 348.114 45.4752 348.545 45.4752C348.944 45.4752 349.275 45.3093 349.541 44.9775C349.84 44.6125 350.039 44.43 350.138 44.43C350.304 44.43 350.437 44.5461 350.536 44.7784C350.636 44.9775 350.686 45.2264 350.686 45.525C350.719 46.4873 350.42 47.433 349.79 48.362C349.193 49.258 348.263 50.0045 347.003 50.6018C345.775 51.1659 344.282 51.448 342.523 51.448C340.399 51.448 338.624 50.917 337.197 49.8552C335.804 48.7934 335.107 47.3998 335.107 45.6743C335.107 45.0439 335.24 44.3305 335.505 43.5341L336.451 41.0455C336.617 40.4482 336.7 40.0168 336.7 39.7514C336.7 39.32 336.55 39.0048 336.252 38.8057C335.986 38.6066 335.555 38.507 334.958 38.507H333.962L331.722 45.8236C331.623 46.2218 331.573 46.5702 331.573 46.8689C331.573 47.3002 331.656 47.6486 331.822 47.9141C331.988 48.1464 332.22 48.3786 332.519 48.6109C332.751 48.8432 332.917 49.0423 333.016 49.2082C333.116 49.3409 333.133 49.5234 333.066 49.7557C332.9 50.187 332.568 50.5023 332.071 50.7014C331.573 50.9005 330.81 51 329.781 51H318.433C317.57 51 316.94 50.8673 316.542 50.6018C316.143 50.3032 316.011 49.9216 316.143 49.457C316.276 49.0589 316.625 48.7105 317.189 48.4118C317.686 48.1464 318.101 47.8311 318.433 47.4661C318.765 47.1011 319.047 46.5205 319.279 45.7241L326.845 20.8875C326.944 20.5889 326.994 20.34 326.994 20.1409C326.994 19.7759 326.894 19.4773 326.695 19.245C326.529 19.0127 326.297 18.7805 325.998 18.5482C325.667 18.2827 325.418 18.0505 325.252 17.8514C325.119 17.6523 325.103 17.3868 325.202 17.055C325.401 16.2918 326.446 15.6282 328.338 15.0641C330.229 14.5 332.203 14.218 334.261 14.218C336.185 14.218 337.595 14.583 338.491 15.313C339.387 16.0098 339.835 16.9886 339.835 18.2495C339.835 19.0127 339.719 19.7427 339.487 20.4395L335.157 34.575H336.799C337.463 34.575 337.994 34.3759 338.392 33.9777C338.823 33.5795 339.155 32.9989 339.387 32.2357C340.217 29.7802 341.295 27.9055 342.623 26.6114C343.95 25.3173 345.708 24.6702 347.898 24.6702Z" fill="#E94560"/>
<path d="M39.868 17.8514C41.693 17.8514 42.6055 18.598 42.6055 20.0911C42.6055 20.5557 42.5059 21.1364 42.3068 21.8332L41.1123 25.8648C40.7473 27.0925 40.2993 27.9552 39.7684 28.453C39.2375 28.9507 38.4743 29.1995 37.4789 29.1995C36.6493 29.1995 36.0023 28.9839 35.5377 28.5525C35.1064 28.1211 34.6916 27.4409 34.2934 26.5118L33.4473 24.4711C33.1818 23.8407 32.8998 23.4093 32.6011 23.177C32.3025 22.9448 31.838 22.8286 31.2075 22.8286H30.0627L23.7416 45.077C23.642 45.5084 23.5923 45.89 23.5923 46.2218C23.5923 46.62 23.642 46.9518 23.7416 47.2173C23.8743 47.4827 24.0568 47.7648 24.2891 48.0634C24.5877 48.528 24.737 48.9095 24.737 49.2082C24.737 49.2745 24.7039 49.4405 24.6375 49.7059C24.4716 50.1373 24.1398 50.4525 23.642 50.6516C23.1775 50.8507 22.4973 50.9502 21.6014 50.9502H9.90477C9.20795 50.9502 8.66045 50.8341 8.26227 50.6018C7.89727 50.3695 7.71477 50.0377 7.71477 49.6064C7.71477 49.4073 7.76455 49.2082 7.86409 49.0091C7.99682 48.7105 8.14614 48.4948 8.31205 48.362C8.51114 48.1961 8.79318 47.997 9.15818 47.7648C9.65591 47.4661 10.0707 47.1343 10.4025 46.7693C10.7343 46.4043 11.0164 45.8402 11.2486 45.077L17.52 22.8286H16.3752C15.6452 22.8286 15.048 22.9448 14.5834 23.177C14.1189 23.4093 13.6211 23.8407 13.0902 24.4711L11.4477 26.5118C10.6845 27.4077 9.93795 28.088 9.20795 28.5525C8.51114 28.9839 7.74795 29.1995 6.91841 29.1995C6.15523 29.1995 5.55795 29.0005 5.12659 28.6023C4.69523 28.2041 4.47955 27.6566 4.47955 26.9598C4.47955 26.628 4.52932 26.263 4.62886 25.8648L5.92295 21.3355C6.18841 20.4064 6.48705 19.7095 6.81886 19.245C7.15068 18.7473 7.61523 18.3989 8.2125 18.1998C8.84295 17.9675 9.72227 17.8514 10.8505 17.8514H39.868ZM68.2777 44.1314C68.2113 44.2641 68.1781 44.4632 68.1781 44.7286C68.1781 44.9609 68.2279 45.1434 68.3275 45.2761C68.4602 45.4089 68.6261 45.4752 68.8252 45.4752C69.2234 45.4752 69.5552 45.3093 69.8206 44.9775C70.1193 44.6125 70.3184 44.43 70.4179 44.43C70.5838 44.43 70.7165 44.5461 70.8161 44.7784C70.9156 44.9775 70.9654 45.2264 70.9654 45.525C70.9986 46.4873 70.6834 47.433 70.0197 48.362C69.3561 49.258 68.3772 50.0045 67.0831 50.6018C65.8222 51.1659 64.2959 51.448 62.504 51.448C60.314 51.448 58.572 50.9502 57.2779 49.9548C55.9838 48.9261 55.3202 47.5657 55.287 45.8734C55.287 44.6457 55.5856 43.2686 56.1829 41.7423L58.9204 34.575C59.0863 34.1436 59.1693 33.7952 59.1693 33.5298C59.1693 33.0984 59.02 32.7666 58.7213 32.5343C58.4559 32.2689 58.124 32.1361 57.7259 32.1361C57.0954 32.1361 56.4484 32.4348 55.7847 33.032C55.1543 33.5961 54.64 34.5252 54.2418 35.8193V35.7198L51.1061 45.8236C51.0065 46.2218 50.9568 46.5702 50.9568 46.8689C50.9568 47.3002 51.0397 47.6486 51.2056 47.9141C51.3715 48.1464 51.6038 48.3786 51.9025 48.6109C52.1347 48.8432 52.3006 49.0423 52.4002 49.2082C52.4997 49.3409 52.5163 49.5234 52.45 49.7557C52.284 50.187 51.9522 50.5023 51.4545 50.7014C50.9568 50.9005 50.1936 51 49.165 51H37.8168C36.954 51 36.3236 50.8673 35.9254 50.6018C35.5272 50.3032 35.3945 49.9216 35.5272 49.457C35.66 49.0589 36.0084 48.7105 36.5725 48.4118C37.0702 48.1464 37.485 47.8311 37.8168 47.4661C38.1486 47.1011 38.4306 46.5205 38.6629 45.7241L46.2284 20.8875C46.3279 20.5889 46.3777 20.34 46.3777 20.1409C46.3777 19.7759 46.2781 19.4773 46.079 19.245C45.9131 19.0127 45.6809 18.7805 45.3822 18.5482C45.0504 18.2827 44.8015 18.0505 44.6356 17.8514C44.5029 17.6523 44.4863 17.3868 44.5859 17.055C44.785 16.2918 45.8302 15.6282 47.7215 15.0641C49.6129 14.5 51.5872 14.218 53.6445 14.218C55.569 14.218 56.9793 14.583 57.8752 15.313C58.8043 16.043 59.2688 17.0384 59.2688 18.2993C59.2688 19.0293 59.1527 19.7427 58.9204 20.4395L56.2327 29.1995C57.5268 27.5073 58.8872 26.3293 60.314 25.6657C61.774 25.002 63.3502 24.6702 65.0425 24.6702C67.0665 24.6702 68.6925 25.2841 69.9202 26.5118C71.1811 27.7395 71.8115 29.3323 71.8115 31.29C71.8115 32.3186 71.6456 33.3307 71.3138 34.3261L68.2777 44.1314ZM86.1939 24.6702C88.1185 24.6702 89.5287 25.0352 90.4246 25.7652C91.3205 26.4952 91.7685 27.4907 91.7685 28.7516C91.7685 29.5148 91.6523 30.2448 91.42 30.9416L86.841 45.8236C86.7414 46.2218 86.6916 46.5702 86.6916 46.8689C86.6916 47.3002 86.7746 47.6486 86.9405 47.9141C87.1064 48.1464 87.3387 48.3786 87.6373 48.6109C87.8696 48.8432 88.0355 49.0423 88.135 49.2082C88.2346 49.3409 88.2512 49.5234 88.1848 49.7557C88.0189 50.187 87.6871 50.5023 87.1894 50.7014C86.6916 50.9005 85.9285 51 84.8998 51H73.5516C72.6889 51 72.0585 50.8673 71.6603 50.6018C71.2621 50.3032 71.1294 49.9216 71.2621 49.457C71.3948 49.0589 71.7432 48.7105 72.3073 48.4118C72.805 48.1464 73.2198 47.8311 73.5516 47.4661C73.8835 47.1011 74.1655 46.5205 74.3978 45.7241L78.728 31.3398C78.8275 31.0411 78.8773 30.7923 78.8773 30.5932C78.8773 30.2282 78.7944 29.9461 78.6285 29.747C78.4625 29.5148 78.2137 29.2825 77.8819 29.0502C77.55 28.7848 77.3178 28.5525 77.185 28.3534C77.0523 28.1543 77.0357 27.8889 77.1353 27.557C77.3344 26.7939 78.3796 26.1302 80.271 25.5661C82.1623 24.9689 84.1366 24.6702 86.1939 24.6702ZM89.5287 13.6705C90.8228 13.6705 91.9012 14.1018 92.7639 14.9645C93.6266 15.7941 94.058 16.8227 94.058 18.0505C94.058 18.9132 93.8257 19.7593 93.3612 20.5889C92.9298 21.4184 92.2994 22.0986 91.4698 22.6295C90.6735 23.1273 89.7775 23.3761 88.7821 23.3761C87.5212 23.3761 86.4594 22.9614 85.5966 22.1318C84.7671 21.2691 84.3357 20.2073 84.3025 18.9464C84.3025 18.1168 84.5182 17.3039 84.9496 16.5075C85.381 15.678 85.9948 14.9977 86.7912 14.4668C87.5875 13.9359 88.5 13.6705 89.5287 13.6705ZM107.706 24.2223C110.46 24.2223 112.833 24.4711 114.824 24.9689C116.848 25.4666 118.391 26.1634 119.453 27.0593C120.548 27.9552 121.095 28.9673 121.095 30.0955C121.095 31.2568 120.631 32.2025 119.701 32.9325C118.806 33.6625 117.545 34.0275 115.919 34.0275C114.26 34.0275 112.849 33.6127 111.688 32.7832C110.56 31.9536 109.996 30.9084 109.996 29.6475C109.996 29.2161 110.062 28.8014 110.195 28.4032C109.598 28.2373 109.067 28.1543 108.602 28.1543C107.773 28.1543 107.076 28.3534 106.512 28.7516C105.981 29.1498 105.732 29.7139 105.765 30.4439C105.765 31.3066 106.196 32.0366 107.059 32.6339C107.922 33.2311 109.316 33.9777 111.24 34.8736C112.899 35.6036 114.26 36.2839 115.321 36.9143C116.416 37.5116 117.329 38.2748 118.059 39.2039C118.822 40.133 119.204 41.228 119.204 42.4889C119.204 42.7543 119.137 43.252 119.005 43.982C118.474 46.2052 116.997 47.9639 114.575 49.258C112.153 50.552 108.967 51.1991 105.019 51.1991C100.572 51.1991 97.0383 50.6018 94.4169 49.4073C91.8287 48.2127 90.5346 46.5702 90.5346 44.4798C90.5346 43.053 90.966 41.9745 91.8287 41.2445C92.6915 40.5145 93.8362 40.1495 95.263 40.1495C96.9221 40.1495 98.3324 40.6639 99.4937 41.6925C100.688 42.7211 101.286 44.0318 101.286 45.6245C101.286 46.0559 101.236 46.5039 101.136 46.9684C101.933 47.1675 102.696 47.267 103.426 47.267C104.289 47.267 105.002 47.0348 105.566 46.5702C106.13 46.1057 106.412 45.4586 106.412 44.6291C106.379 43.8659 105.997 43.2189 105.267 42.688C104.537 42.1239 103.376 41.4602 101.783 40.697C100.29 40.0002 99.0624 39.3532 98.1001 38.7559C97.1378 38.1255 96.3083 37.3457 95.6115 36.4166C94.9478 35.4875 94.616 34.3925 94.616 33.1316C94.616 30.4107 95.7442 28.2539 98.0005 26.6611C100.29 25.0352 103.525 24.2223 107.706 24.2223ZM143.889 24.6702C145.814 24.6702 147.224 25.0352 148.12 25.7652C149.016 26.4952 149.464 27.4907 149.464 28.7516C149.464 29.5148 149.348 30.2448 149.116 30.9416L144.536 45.8236C144.437 46.2218 144.387 46.5702 144.387 46.8689C144.387 47.3002 144.47 47.6486 144.636 47.9141C144.802 48.1464 145.034 48.3786 145.333 48.6109C145.565 48.8432 145.731 49.0423 145.831 49.2082C145.93 49.3409 145.947 49.5234 145.88 49.7557C145.714 50.187 145.383 50.5023 144.885 50.7014C144.387 50.9005 143.624 51 142.595 51H131.247C130.384 51 129.754 50.8673 129.356 50.6018C128.958 50.3032 128.825 49.9216 128.958 49.457C129.09 49.0589 129.439 48.7105 130.003 48.4118C130.501 48.1464 130.915 47.8311 131.247 47.4661C131.579 47.1011 131.861 46.5205 132.093 45.7241L136.424 31.3398C136.523 31.0411 136.573 30.7923 136.573 30.5932C136.573 30.2282 136.49 29.9461 136.324 29.747C136.158 29.5148 135.909 29.2825 135.577 29.0502C135.246 28.7848 135.013 28.5525 134.881 28.3534C134.748 28.1543 134.731 27.8889 134.831 27.557C135.03 26.7939 136.075 26.1302 137.966 25.5661C139.858 24.9689 141.832 24.6702 143.889 24.6702ZM147.224 13.6705C148.518 13.6705 149.597 14.1018 150.459 14.9645C151.322 15.7941 151.754 16.8227 151.754 18.0505C151.754 18.9132 151.521 19.7593 151.057 20.5889C150.625 21.4184 149.995 22.0986 149.165 22.6295C148.369 23.1273 147.473 23.3761 146.478 23.3761C145.217 23.3761 144.155 22.9614 143.292 22.1318C142.463 21.2691 142.031 20.2073 141.998 18.9464C141.998 18.1168 142.214 17.3039 142.645 16.5075C143.076 15.678 143.69 14.9977 144.487 14.4668C145.283 13.9359 146.196 13.6705 147.224 13.6705ZM165.402 24.2223C168.156 24.2223 170.528 24.4711 172.519 24.9689C174.543 25.4666 176.086 26.1634 177.148 27.0593C178.243 27.9552 178.791 28.9673 178.791 30.0955C178.791 31.2568 178.326 32.2025 177.397 32.9325C176.501 33.6625 175.24 34.0275 173.614 34.0275C171.955 34.0275 170.545 33.6127 169.384 32.7832C168.255 31.9536 167.691 30.9084 167.691 29.6475C167.691 29.2161 167.758 28.8014 167.89 28.4032C167.293 28.2373 166.762 28.1543 166.298 28.1543C165.468 28.1543 164.771 28.3534 164.207 28.7516C163.676 29.1498 163.427 29.7139 163.461 30.4439C163.461 31.3066 163.892 32.0366 164.755 32.6339C165.617 33.2311 167.011 33.9777 168.936 34.8736C170.595 35.6036 171.955 36.2839 173.017 36.9143C174.112 37.5116 175.024 38.2748 175.754 39.2039C176.518 40.133 176.899 41.228 176.899 42.4889C176.899 42.7543 176.833 43.252 176.7 43.982C176.169 46.2052 174.693 47.9639 172.27 49.258C169.848 50.552 166.663 51.1991 162.714 51.1991C158.268 51.1991 154.734 50.6018 152.112 49.4073C149.524 48.2127 148.23 46.5702 148.23 44.4798C148.23 43.053 148.662 41.9745 149.524 41.2445C150.387 40.5145 151.532 40.1495 152.959 40.1495C154.618 40.1495 156.028 40.6639 157.189 41.6925C158.384 42.7211 158.981 44.0318 158.981 45.6245C158.981 46.0559 158.931 46.5039 158.832 46.9684C159.628 47.1675 160.391 47.267 161.121 47.267C161.984 47.267 162.697 47.0348 163.262 46.5702C163.826 46.1057 164.108 45.4586 164.108 44.6291C164.074 43.8659 163.693 43.2189 162.963 42.688C162.233 42.1239 161.072 41.4602 159.479 40.697C157.986 40.0002 156.758 39.3532 155.796 38.7559C154.833 38.1255 154.004 37.3457 153.307 36.4166C152.643 35.4875 152.312 34.3925 152.312 33.1316C152.312 30.4107 153.44 28.2539 155.696 26.6611C157.986 25.0352 161.221 24.2223 165.402 24.2223Z" fill="#0F3460"/>
</svg>
